# This file uses centimeters as units for non-parametric coordinates.

mtllib Tiny Rocket.mtl
g default
v 0.445701 -0.809017 -0.445701
v -0.000000 -0.809017 -0.630316
v -0.445701 -0.809017 -0.445701
v -0.630316 -0.809017 0.000000
v -0.445701 -0.809017 0.445701
v -0.000000 -0.809017 0.630316
v 0.445701 -0.809017 0.445701
v 0.630316 -0.809017 0.000000
v 0.672498 -0.309017 -0.672498
v 0.000000 -0.309017 -0.951056
v -0.672498 -0.309017 -0.672498
v -0.951056 -0.309017 0.000000
v -0.672498 -0.309017 0.672498
v 0.000000 -0.309017 0.951056
v 0.672499 -0.309017 0.672499
v 0.951057 -0.309017 0.000000
v 0.672498 0.309017 -0.672498
v 0.000000 0.309017 -0.951056
v -0.672498 0.309017 -0.672498
v -0.951056 0.309017 0.000000
v -0.672498 0.309017 0.672498
v 0.000000 0.309017 0.951056
v 0.672499 0.309017 0.672499
v 0.951057 0.309017 0.000000
v 0.415627 0.809017 -0.415627
v 0.000000 0.809017 -0.587785
v -0.415627 0.809017 -0.415627
v -0.587785 0.809017 0.000000
v -0.415627 0.809017 0.415627
v 0.000000 0.809017 0.587785
v 0.415627 0.809017 0.415627
v 0.587785 0.809017 0.000000
v 0.000000 -1.307140 0.000000
v 0.000000 1.225768 0.000000
v 0.771124 -1.782500 -1.215162
v 0.313983 -1.782500 -1.404517
v 0.235499 -0.931898 -1.353124
v 0.790280 -0.931898 -1.123326
v -1.215162 -1.782500 -0.771124
v -1.404517 -1.782500 -0.313983
v -1.353124 -0.931898 -0.235499
v -1.123326 -0.931898 -0.790280
v -0.771124 -1.782500 1.215162
v -0.313983 -1.782500 1.404517
v -0.235499 -0.931898 1.353124
v -0.790280 -0.931898 1.123326
v 1.215162 -1.782500 0.771123
v 1.404517 -1.782500 0.313983
v 1.353124 -0.931898 0.235499
v 1.123326 -0.931898 0.790280
v 0.000000 0.958474 -0.293893
v -0.293893 0.958474 0.000000
v 0.000000 0.958474 0.293893
v 0.293893 0.958474 0.000000
v -0.163113 0.958474 0.163113
v 0.163113 0.958474 0.163113
v 0.163113 0.958474 -0.163113
v -0.163113 0.958474 -0.163113
vt 0.328986 0.735002
vt 0.183672 0.371243
vt 0.471504 0.362123
vt 0.613572 0.727162
vt 0.773752 0.938363
vt 0.619035 0.578502
vt 0.164695 0.956740
vt 0.007407 0.597995
vt 0.355787 0.337504
vt 0.256326 0.334996
vt 0.441163 0.759367
vt 0.540597 0.762760
vt 0.790216 0.540302
vt 0.690723 0.540380
vt 0.178310 0.558571
vt 0.078820 0.559361
vt 0.357916 0.253056
vt 0.025254 0.179173
vt 0.438282 0.843793
vt 0.611804 0.190312
vt 0.790149 0.455827
vt 0.879053 0.849283
vt 0.177639 0.474099
vt 0.471923 0.188216
vt 0.340995 0.170293
vt 0.044154 0.261518
vt 0.454465 0.926703
vt 0.629007 0.273028
vt 0.771083 0.373532
vt 0.897844 0.931653
vt 0.157984 0.391943
vt 0.489920 0.270763
vt 0.871252 0.105073
vt 0.865753 0.491149
vt 0.334250 0.559741
vt 0.208258 0.544851
vt 0.262361 0.441148
vt 0.344412 0.443216
vt 0.464679 0.537330
vt 0.590533 0.553342
vt 0.535508 0.656559
vt 0.453479 0.653760
vt 0.774460 0.763024
vt 0.648124 0.751412
vt 0.699514 0.646339
vt 0.781591 0.646274
vt 0.164148 0.781401
vt 0.037732 0.770693
vt 0.088369 0.665254
vt 0.170444 0.664603
vt 0.832191 0.523958
vt 0.832944 0.457587
vt 0.899316 0.458340
vt 0.898562 0.524711
vt 0.670942 0.323546
vt 0.940743 0.981355
vt 0.532337 0.320876
vt 0.087117 0.311164
vt 0.490704 0.024495
vt 0.951875 0.162278
vt 0.042241 0.015256
vt 0.928457 0.024450
vt 0.632154 0.026779
vt 0.790629 0.047868
vt 0.896254 0.685389
vt 0.814047 0.185696
vt 0.833147 0.751267
vt 0.706829 0.763077
vt 0.707813 0.938415
vt 0.861963 0.578311
vt 0.405618 0.547033
vt 0.532271 0.539636
vt 0.537405 0.364371
vt 0.370785 0.718878
vt 0.393222 0.549513
vt 0.266640 0.558037
vt 0.263068 0.733341
vt 0.426523 0.377364
vt 0.222749 0.769224
vt 0.096519 0.781938
vt 0.098758 0.957264
vt 0.250328 0.596066
vt 0.968712 0.088514
vt 0.556647 0.025301
vt 0.887811 0.202533
vt 0.962202 0.685559
vt 0.773793 0.121632
vt 0.698086 0.028217
vt 0.854693 0.007614
vt 0.108189 0.015340
vt 0.258455 0.250549
vt 0.571422 0.189432
vt 0.025362 0.094687
vt 0.572454 0.104952
vt 0.078149 0.474889
vt 0.978558 0.849540
vt 0.472956 0.103736
vt 0.978776 0.765054
vt 0.690657 0.455905
vt 0.879270 0.764798
vt 0.711285 0.192483
vt 0.713128 0.108017
vt 0.537716 0.847186
vt 0.613646 0.105847
vt 0.124760 0.179299
vt 0.124867 0.094814
vt 0.824431 0.490680
vt 0.643454 0.315722
vt 0.865284 0.532471
vt 0.059474 0.303906
vt 0.907075 0.491618
vt 0.504776 0.313316
vt 0.866222 0.449827
vt 0.913110 0.974061
vt 0.105652 0.261596
vt 0.471232 0.976889
vt 0.551413 0.271514
vt 0.323781 0.120258
vt 0.959342 0.931811
vt 0.139122 0.342506
vt 0.690490 0.274369
vt 0.752575 0.323961
vt 0.096497 0.392431
vt 0.111532 0.349947
vt 0.709594 0.373580
vt 0.724933 0.331205
vt 0.515919 0.928800
vt 0.499111 0.970614
vt 0.279524 0.168744
vt 0.295959 0.126781
vn 0.381105 0.090753 -0.920067
vn 0.381105 0.090753 -0.920067
vn 0.381105 0.090753 -0.920067
vn 0.381105 0.090753 -0.920067
vn -0.329211 -0.509839 -0.794785
vn -0.329211 -0.509839 -0.794785
vn -0.329211 -0.509840 -0.794785
vn -0.329211 -0.509839 -0.794786
vn -0.920067 0.090753 -0.381105
vn -0.920067 0.090753 -0.381105
vn -0.920067 0.090753 -0.381105
vn -0.920067 0.090753 -0.381105
vn -0.794786 -0.509840 0.329211
vn -0.794786 -0.509840 0.329211
vn -0.794785 -0.509840 0.329211
vn -0.794785 -0.509840 0.329211
vn -0.381105 0.090753 0.920067
vn -0.381105 0.090753 0.920067
vn -0.381105 0.090753 0.920067
vn -0.381105 0.090753 0.920067
vn 0.329211 -0.509839 0.794786
vn 0.329211 -0.509839 0.794786
vn 0.329211 -0.509839 0.794785
vn 0.329211 -0.509839 0.794786
vn 0.920067 0.090753 0.381105
vn 0.920067 0.090753 0.381105
vn 0.920067 0.090753 0.381105
vn 0.920067 0.090753 0.381105
vn 0.794785 -0.509839 -0.329211
vn 0.794785 -0.509839 -0.329211
vn 0.794785 -0.509840 -0.329211
vn 0.794785 -0.509839 -0.329211
vn 0.382683 0.000000 -0.923880
vn 0.382683 0.000000 -0.923880
vn 0.382683 0.000000 -0.923880
vn 0.382683 0.000000 -0.923880
vn -0.382683 0.000000 -0.923880
vn -0.382683 0.000000 -0.923880
vn -0.382683 0.000000 -0.923880
vn -0.382683 0.000000 -0.923880
vn -0.923880 0.000000 -0.382683
vn -0.923880 0.000000 -0.382683
vn -0.923880 0.000000 -0.382683
vn -0.923880 0.000000 -0.382683
vn -0.923880 0.000000 0.382683
vn -0.923880 0.000000 0.382683
vn -0.923880 0.000000 0.382683
vn -0.923880 0.000000 0.382683
vn -0.382684 0.000000 0.923880
vn -0.382684 0.000000 0.923880
vn -0.382684 0.000000 0.923880
vn -0.382684 0.000000 0.923880
vn 0.382683 0.000000 0.923880
vn 0.382683 0.000000 0.923880
vn 0.382683 0.000000 0.923880
vn 0.382683 0.000000 0.923880
vn 0.923880 0.000000 0.382683
vn 0.923880 0.000000 0.382683
vn 0.923880 0.000000 0.382683
vn 0.923880 0.000000 0.382683
vn 0.923880 0.000000 -0.382684
vn 0.923880 0.000000 -0.382684
vn 0.923880 0.000000 -0.382684
vn 0.923880 0.000000 -0.382684
vn 0.317740 0.557325 -0.767092
vn 0.317740 0.557325 -0.767092
vn 0.317740 0.557325 -0.767092
vn 0.317740 0.557325 -0.767092
vn -0.317740 0.557325 -0.767092
vn -0.317740 0.557325 -0.767092
vn -0.317740 0.557325 -0.767092
vn -0.317740 0.557325 -0.767092
vn -0.767092 0.557325 -0.317740
vn -0.767092 0.557325 -0.317740
vn -0.767092 0.557325 -0.317740
vn -0.767092 0.557325 -0.317740
vn -0.767092 0.557325 0.317740
vn -0.767092 0.557325 0.317740
vn -0.767092 0.557325 0.317740
vn -0.767092 0.557325 0.317740
vn -0.317740 0.557325 0.767092
vn -0.317740 0.557325 0.767092
vn -0.317740 0.557325 0.767092
vn -0.317740 0.557325 0.767092
vn 0.317740 0.557325 0.767092
vn 0.317740 0.557325 0.767092
vn 0.317740 0.557325 0.767092
vn 0.317740 0.557325 0.767092
vn 0.767092 0.557325 0.317740
vn 0.767092 0.557325 0.317740
vn 0.767092 0.557325 0.317740
vn 0.767092 0.557325 0.317740
vn 0.767092 0.557325 -0.317740
vn 0.767092 0.557325 -0.317740
vn 0.767092 0.557325 -0.317740
vn 0.767092 0.557325 -0.317740
vn 0.248753 -0.759915 -0.600542
vn 0.248753 -0.759915 -0.600542
vn 0.248753 -0.759915 -0.600542
vn -0.248753 -0.759915 -0.600542
vn -0.248753 -0.759915 -0.600542
vn -0.248753 -0.759915 -0.600542
vn -0.600542 -0.759915 -0.248753
vn -0.600542 -0.759915 -0.248753
vn -0.600542 -0.759915 -0.248753
vn -0.600542 -0.759915 0.248753
vn -0.600542 -0.759915 0.248753
vn -0.600542 -0.759915 0.248753
vn -0.248753 -0.759915 0.600542
vn -0.248753 -0.759915 0.600542
vn -0.248753 -0.759915 0.600542
vn 0.248753 -0.759915 0.600542
vn 0.248753 -0.759915 0.600542
vn 0.248753 -0.759915 0.600542
vn 0.600542 -0.759915 0.248753
vn 0.600542 -0.759915 0.248753
vn 0.600542 -0.759915 0.248753
vn 0.600542 -0.759915 -0.248753
vn 0.600542 -0.759915 -0.248753
vn 0.600542 -0.759915 -0.248753
vn -0.535322 0.653346 -0.535322
vn -0.294628 0.849460 -0.437735
vn -0.397283 0.827244 -0.397283
vn -0.437735 0.849460 -0.294628
vn -0.535322 0.653346 0.535322
vn -0.437735 0.849460 0.294628
vn -0.397283 0.827244 0.397283
vn -0.294628 0.849460 0.437735
vn 0.535322 0.653346 0.535322
vn 0.294628 0.849460 0.437735
vn 0.397283 0.827244 0.397282
vn 0.437735 0.849460 0.294628
vn 0.535322 0.653346 -0.535322
vn 0.437735 0.849460 -0.294628
vn 0.397283 0.827244 -0.397283
vn 0.294628 0.849460 -0.437735
vn -0.290406 -0.651245 0.701102
vn -0.290406 -0.651245 0.701102
vn -0.290406 -0.651245 0.701102
vn -0.290406 -0.651245 0.701102
vn -0.950208 -0.113122 -0.290358
vn -0.950208 -0.113122 -0.290358
vn -0.950208 -0.113122 -0.290358
vn -0.950208 -0.113122 -0.290358
vn 0.307463 0.595386 -0.742282
vn 0.307463 0.595386 -0.742282
vn 0.307463 0.595386 -0.742282
vn 0.307463 0.595386 -0.742282
vn 0.877213 -0.113122 0.466585
vn 0.877213 -0.113122 0.466585
vn 0.877213 -0.113122 0.466585
vn 0.877213 -0.113122 0.466585
vn 0.701102 -0.651245 0.290407
vn 0.701102 -0.651245 0.290407
vn 0.701102 -0.651245 0.290407
vn 0.701102 -0.651245 0.290407
vn -0.290358 -0.113122 0.950208
vn -0.290358 -0.113122 0.950208
vn -0.290358 -0.113122 0.950208
vn -0.290358 -0.113122 0.950208
vn -0.742282 0.595386 -0.307463
vn -0.742282 0.595386 -0.307463
vn -0.742282 0.595386 -0.307463
vn -0.742282 0.595386 -0.307463
vn 0.466585 -0.113122 -0.877213
vn 0.466585 -0.113122 -0.877213
vn 0.466585 -0.113122 -0.877213
vn 0.466585 -0.113122 -0.877213
vn 0.290407 -0.651245 -0.701102
vn 0.290407 -0.651245 -0.701102
vn 0.290407 -0.651245 -0.701102
vn 0.290407 -0.651245 -0.701102
vn 0.950208 -0.113122 0.290358
vn 0.950208 -0.113122 0.290358
vn 0.950208 -0.113122 0.290358
vn 0.950208 -0.113122 0.290358
vn -0.307463 0.595386 0.742282
vn -0.307463 0.595386 0.742282
vn -0.307463 0.595386 0.742282
vn -0.307463 0.595386 0.742282
vn -0.877213 -0.113122 -0.466585
vn -0.877213 -0.113122 -0.466585
vn -0.877213 -0.113122 -0.466585
vn -0.877213 -0.113122 -0.466585
vn -0.701102 -0.651245 -0.290407
vn -0.701102 -0.651245 -0.290407
vn -0.701102 -0.651245 -0.290407
vn -0.701102 -0.651245 -0.290407
vn 0.290358 -0.113122 -0.950208
vn 0.290358 -0.113122 -0.950208
vn 0.290358 -0.113122 -0.950208
vn 0.290358 -0.113122 -0.950208
vn 0.742281 0.595386 0.307463
vn 0.742282 0.595386 0.307463
vn 0.742282 0.595386 0.307463
vn 0.742282 0.595386 0.307463
vn -0.466585 -0.113122 0.877213
vn -0.466585 -0.113122 0.877213
vn -0.466585 -0.113122 0.877213
vn -0.466585 -0.113122 0.877213
vn -0.206464 0.895430 -0.394434
vn -0.303139 0.903446 -0.303139
vn -0.303139 0.903446 0.303139
vn -0.394434 0.895430 0.206464
vn 0.303138 0.903446 0.303138
vn 0.206464 0.895430 0.394433
vn 0.303138 0.903446 -0.303139
vn 0.394434 0.895430 -0.206464
vn -0.206464 0.895430 0.394434
vn 0.394434 0.895430 0.206464
vn 0.206464 0.895430 -0.394434
vn -0.394434 0.895430 -0.206464
s off
g pSphere1
usemtl initialShadingGroup
f 35/35/1 36/76/2 37/37/3 38/38/4
f 2/61/5 3/90/6 11/106/7 10/93/8
f 39/39/9 40/72/10 41/41/11 42/42/12
f 4/63/13 5/88/14 13/102/15 12/104/16
f 43/43/17 44/68/18 45/45/19 46/46/20
f 6/65/21 7/86/22 15/98/23 14/100/24
f 47/47/25 48/80/26 49/49/27 50/50/28
f 8/59/29 1/84/30 9/94/31 16/97/32
f 9/9/33 10/10/34 18/91/35 17/17/36
f 10/93/37 11/106/38 19/105/39 18/18/40
f 11/11/41 12/12/42 20/103/43 19/19/44
f 12/104/45 13/102/46 21/101/47 20/20/48
f 13/13/49 14/14/50 22/99/51 21/21/52
f 14/100/53 15/98/54 23/96/55 22/22/56
f 15/15/57 16/16/58 24/95/59 23/23/60
f 16/97/61 9/94/62 17/92/63 24/24/64
f 17/17/65 18/91/66 26/129/67 25/25/68
f 18/18/69 19/105/70 27/115/71 26/26/72
f 19/19/73 20/103/74 28/127/75 27/27/76
f 20/20/77 21/101/78 29/121/79 28/28/80
f 21/21/81 22/99/82 30/125/83 29/29/84
f 22/22/85 23/96/86 31/119/87 30/30/88
f 23/23/89 24/95/90 32/123/91 31/31/92
f 24/24/93 17/92/94 25/117/95 32/32/96
f 2/89/97 1/62/98 33/33/99
f 3/64/100 2/89/101 33/33/102
f 4/87/103 3/64/104 33/33/105
f 5/66/106 4/87/107 33/33/108
f 6/85/109 5/66/110 33/33/111
f 7/60/112 6/85/113 33/33/114
f 8/83/115 7/60/116 33/33/117
f 1/62/118 8/83/119 33/33/120
s 1
f 34/34/121 51/51/122 58/107/123 52/52/124
s 2
f 34/34/125 52/52/126 55/113/127 53/53/128
s 3
f 34/34/129 53/53/130 56/111/131 54/54/132
s 4
f 34/34/133 54/54/134 57/109/135 51/51/136
s off
f 1/1/137 2/77/138 36/76/139 35/35/140
f 2/2/141 10/10/142 37/37/143 36/36/144
f 10/10/145 9/9/146 38/38/147 37/37/148
f 9/9/149 1/78/150 35/75/151 38/38/152
f 3/3/153 4/73/154 40/72/155 39/39/156
f 4/4/157 12/12/158 41/41/159 40/40/160
f 12/12/161 11/11/162 42/42/163 41/41/164
f 11/11/165 3/74/166 39/71/167 42/42/168
f 5/5/169 6/69/170 44/68/171 43/43/172
f 6/6/173 14/14/174 45/45/175 44/44/176
f 14/14/177 13/13/178 46/46/179 45/45/180
f 13/13/181 5/70/182 43/67/183 46/46/184
f 7/7/185 8/81/186 48/80/187 47/47/188
f 8/8/189 16/16/190 49/49/191 48/48/192
f 16/16/193 15/15/194 50/50/195 49/49/196
f 15/15/197 7/82/198 47/79/199 50/50/200
s 1
f 51/110/122 26/26/201 27/115/202 58/58/123
s 2
f 29/121/203 55/55/127 52/108/126 28/28/204
s 3
f 31/119/205 56/56/131 53/114/130 30/30/206
s 4
f 25/117/207 57/57/135 54/112/134 32/32/208
s 2
f 53/126/128 55/122/127 29/29/203 30/125/209
s 3
f 54/124/132 56/120/131 31/31/205 32/123/210
s 4
f 51/130/136 57/118/135 25/25/207 26/129/211
s 1
f 58/116/123 27/27/202 28/127/212 52/128/124
